<?xml version="1.0" standalone="no"?>
<!DOCTYPE svg PUBLIC "-//W3C//DTD SVG 20010904//EN"
 "http://www.w3.org/TR/2001/REC-SVG-20010904/DTD/svg10.dtd">
<svg version="1.0" xmlns="http://www.w3.org/2000/svg"
 width="1182.000000pt" height="1182.000000pt" viewBox="0 0 1182.000000 1182.000000"
 preserveAspectRatio="xMidYMid meet">

<g transform="translate(0.000000,1182.000000) scale(0.100000,-0.100000)"
fill="#000000" stroke="none">
<path d="M5905 10059 c-11 -17 1 -21 15 -4 8 9 8 15 2 15 -6 0 -14 -5 -17 -11z"/>
<path d="M5874 10028 c-4 -7 -4 -10 1 -6 4 4 14 3 21 -3 9 -7 14 -6 20 3 4 7
4 10 -1 6 -4 -4 -14 -3 -21 3 -9 7 -14 6 -20 -3z"/>
<path d="M6021 10024 c0 -11 3 -14 6 -6 3 7 2 16 -1 19 -3 4 -6 -2 -5 -13z"/>
<path d="M5851 9997 c-8 -10 -7 -14 2 -14 8 0 14 6 14 14 0 7 -1 13 -2 13 -2
0 -8 -6 -14 -13z"/>
<path d="M6736 10001 c-3 -5 1 -11 9 -14 9 -4 12 -1 8 9 -6 16 -10 17 -17 5z"/>
<path d="M6791 9987 c2 -1 13 -9 24 -17 19 -14 19 -14 6 3 -7 9 -18 17 -24 17
-6 0 -8 -1 -6 -3z"/>
<path d="M5995 9970 c-3 -5 -1 -10 4 -10 6 0 11 5 11 10 0 6 -2 10 -4 10 -3 0
-8 -4 -11 -10z"/>
<path d="M6605 9946 c-24 -20 -28 -27 -17 -37 10 -11 15 -10 30 6 16 18 16 18
-1 6 -30 -23 -30 -5 0 23 35 33 28 34 -12 2z"/>
<path d="M6837 9939 c7 -7 15 -10 18 -7 3 3 -2 9 -12 12 -14 6 -15 5 -6 -5z"/>
<path d="M5815 9920 c3 -5 8 -10 11 -10 2 0 4 5 4 10 0 6 -5 10 -11 10 -5 0
-7 -4 -4 -10z"/>
<path d="M5803 9905 c4 -5 -1 -17 -10 -28 -18 -19 -17 -19 5 -6 25 16 28 25
10 35 -7 4 -10 3 -5 -1z"/>
<path d="M6022 9890 c0 -14 2 -19 5 -12 2 6 2 18 0 25 -3 6 -5 1 -5 -13z"/>
<path d="M4892 9874 c-7 -8 -8 -14 -3 -14 10 0 25 19 20 25 -2 1 -10 -3 -17
-11z"/>
<path d="M6806 9854 c-4 -9 -2 -22 4 -30 9 -9 2 -19 -27 -38 -21 -14 -33 -26
-28 -26 17 0 68 46 71 63 1 10 -2 14 -8 11 -6 -4 -8 1 -3 15 7 25 0 29 -9 5z"/>
<path d="M6835 9861 c-3 -5 -2 -12 3 -15 5 -3 9 1 9 9 0 17 -3 19 -12 6z"/>
<path d="M6519 9843 c-13 -16 -12 -17 4 -4 9 7 17 15 17 17 0 8 -8 3 -21 -13z"/>
<path d="M4886 9826 c6 -15 4 -17 -6 -11 -9 6 -11 4 -5 -4 5 -9 10 -10 18 -2
8 8 7 14 -2 24 -10 10 -11 8 -5 -7z"/>
<path d="M5975 9799 c-4 -6 -12 -8 -19 -6 -6 3 -12 -4 -12 -14 0 -17 2 -17 23
3 13 12 23 23 23 25 0 7 -9 2 -15 -8z"/>
<path d="M4890 9785 c-7 -9 -8 -15 -2 -15 5 0 12 7 16 15 3 8 4 15 2 15 -2 0
-9 -7 -16 -15z"/>
<path d="M4815 9779 c-4 -6 -5 -12 -2 -15 2 -3 7 2 10 11 7 17 1 20 -8 4z"/>
<path d="M5739 9773 c-4 -21 -6 -53 -4 -53 1 0 9 8 16 17 12 14 12 15 0 9 -10
-7 -12 -3 -6 13 3 11 4 21 1 21 -3 0 -7 -3 -7 -7z"/>
<path d="M4835 9750 c-3 -5 -1 -10 4 -10 6 0 11 5 11 10 0 6 -2 10 -4 10 -3 0
-8 -4 -11 -10z"/>
<path d="M6587 9729 c7 -7 15 -10 18 -7 3 3 -2 9 -12 12 -14 6 -15 5 -6 -5z"/>
<path d="M6435 9699 c-9 -28 -2 -33 13 -9 6 11 8 21 3 25 -5 3 -13 -4 -16 -16z"/>
<path d="M6608 9703 c7 -3 16 -2 19 1 4 3 -2 6 -13 5 -11 0 -14 -3 -6 -6z"/>
<path d="M7328 9683 c7 -3 16 -2 19 1 4 3 -2 6 -13 5 -11 0 -14 -3 -6 -6z"/>
<path d="M7685 9680 c3 -5 8 -10 11 -10 2 0 4 5 4 10 0 6 -5 10 -11 10 -5 0
-7 -4 -4 -10z"/>
<path d="M4766 9658 c3 -5 10 -6 15 -3 13 9 11 12 -6 12 -8 0 -12 -4 -9 -9z"/>
<path d="M7705 9660 c-3 -5 -1 -10 4 -10 6 0 11 5 11 10 0 6 -2 10 -4 10 -3 0
-8 -4 -11 -10z"/>
<path d="M6477 9649 c7 -7 15 -10 18 -7 3 3 -2 9 -12 12 -14 6 -15 5 -6 -5z"/>
<path d="M5190 9646 c0 -2 8 -10 18 -17 15 -13 16 -12 3 4 -13 16 -21 21 -21
13z"/>
<path d="M5798 9643 c7 -3 16 -2 19 1 4 3 -2 6 -13 5 -11 0 -14 -3 -6 -6z"/>
<path d="M7135 9630 c-13 -6 -15 -9 -5 -9 8 0 22 4 30 9 18 12 2 12 -25 0z"/>
<path d="M6538 9623 c7 -3 16 -2 19 1 4 3 -2 6 -13 5 -11 0 -14 -3 -6 -6z"/>
<path d="M4881 9605 c0 -5 3 -16 8 -23 7 -11 9 -10 14 3 4 9 3 14 -2 10 -5 -3
-12 1 -14 7 -3 7 -6 9 -6 3z"/>
<path d="M5958 9583 c6 -2 9 -10 6 -15 -4 -7 -2 -8 5 -4 13 9 5 26 -12 25 -9
0 -8 -2 1 -6z"/>
<path d="M7691 9563 c-1 -6 -4 -20 -7 -30 -5 -17 -5 -17 6 0 6 10 9 23 6 30
-3 9 -5 9 -5 0z"/>
<path d="M6596 9545 c4 -8 11 -15 16 -15 6 0 5 6 -2 15 -7 8 -14 15 -16 15 -2
0 -1 -7 2 -15z"/>
<path d="M7730 9529 c0 -5 5 -7 10 -4 6 3 10 8 10 11 0 2 -4 4 -10 4 -5 0 -10
-5 -10 -11z"/>
<path d="M6626 9522 c-3 -6 -1 -14 5 -17 15 -10 25 3 12 16 -7 7 -13 7 -17 1z"/>
<path d="M7686 9493 c-6 -14 -5 -15 5 -6 7 7 10 15 7 18 -3 3 -9 -2 -12 -12z"/>
<path d="M7704 9478 l-19 -23 23 19 c12 11 22 21 22 23 0 8 -8 2 -26 -19z"/>
<path d="M4803 9461 c0 -11 5 -18 9 -15 4 3 5 11 1 19 -7 21 -12 19 -10 -4z"/>
<path d="M6158 9468 c8 -10 10 -23 6 -30 -5 -10 -4 -10 6 -1 11 10 18 9 34 -5
11 -9 16 -12 12 -5 -3 7 -21 22 -39 35 -20 14 -27 16 -19 6z"/>
<path d="M7306 9471 c-3 -5 2 -15 12 -22 16 -13 16 -13 2 5 -14 18 -13 19 3
13 11 -4 16 -3 12 3 -8 12 -22 13 -29 1z"/>
<path d="M6646 9433 c-6 -14 -5 -15 5 -6 7 7 10 15 7 18 -3 3 -9 -2 -12 -12z"/>
<path d="M4928 9433 c7 -3 16 -2 19 1 4 3 -2 6 -13 5 -11 0 -14 -3 -6 -6z"/>
<path d="M7346 9418 c3 -5 10 -6 15 -3 13 9 11 12 -6 12 -8 0 -12 -4 -9 -9z"/>
<path d="M4860 9400 c-9 -6 -10 -10 -3 -10 6 0 15 5 18 10 8 12 4 12 -15 0z"/>
<path d="M6050 9392 c11 -22 31 -22 29 1 0 8 -2 8 -6 -1 -4 -10 -9 -9 -20 5
-13 17 -13 16 -3 -5z"/>
<path d="M4794 9373 c2 -9 13 -20 25 -25 14 -5 20 -4 16 2 -3 6 -13 10 -21 10
-8 0 -13 4 -9 9 3 5 1 12 -4 15 -5 4 -8 -1 -7 -11z"/>
<path d="M4672 9358 c-15 -15 -15 -28 -1 -28 5 0 7 5 3 12 -5 7 -2 9 9 5 11
-4 14 -2 10 9 -6 17 -6 17 -21 2z"/>
<path d="M6046 9351 c-4 -5 -2 -12 3 -15 5 -4 12 -2 15 3 4 5 2 12 -3 15 -5 4
-12 2 -15 -3z"/>
<path d="M6275 9330 c10 -11 20 -20 23 -20 3 0 -3 9 -13 20 -10 11 -20 20 -23
20 -3 0 3 -9 13 -20z"/>
<path d="M6600 9344 c0 -1 6 -7 14 -13 10 -9 15 -8 19 2 3 8 -3 13 -14 13 -11
0 -19 -1 -19 -2z"/>
<path d="M6748 9343 c7 -3 16 -2 19 1 4 3 -2 6 -13 5 -11 0 -14 -3 -6 -6z"/>
<path d="M5498 9303 c7 -3 16 -2 19 1 4 3 -2 6 -13 5 -11 0 -14 -3 -6 -6z"/>
<path d="M5586 9295 c-3 -8 -1 -15 4 -15 6 0 10 7 10 15 0 8 -2 15 -4 15 -2 0
-6 -7 -10 -15z"/>
<path d="M6270 9300 c0 -5 5 -10 11 -10 5 0 7 5 4 10 -3 6 -8 10 -11 10 -2 0
-4 -4 -4 -10z"/>
<path d="M6316 9283 c-6 -14 -5 -15 5 -6 7 7 10 15 7 18 -3 3 -9 -2 -12 -12z"/>
<path d="M5610 9282 c0 -6 5 -14 10 -17 6 -4 7 -11 4 -17 -4 -7 -2 -8 5 -4 9
6 9 12 -1 24 -7 10 -14 19 -15 21 -2 2 -3 -1 -3 -7z"/>
<path d="M6811 9266 c-9 -11 -9 -16 1 -22 7 -4 10 -4 6 1 -4 4 -3 14 3 22 6 7
9 13 6 13 -2 0 -10 -6 -16 -14z"/>
<path d="M6103 9255 c0 -8 4 -12 9 -9 5 3 6 10 3 15 -9 13 -12 11 -12 -6z"/>
<path d="M6350 9260 c-9 -6 -10 -10 -3 -10 6 0 15 5 18 10 8 12 4 12 -15 0z"/>
<path d="M6131 9238 c-10 -16 -10 -23 0 -32 9 -8 10 -8 5 2 -4 7 -2 20 5 28 6
8 10 16 8 19 -3 2 -11 -5 -18 -17z"/>
<path d="M6631 9244 c0 -11 3 -14 6 -6 3 7 2 16 -1 19 -3 4 -6 -2 -5 -13z"/>
<path d="M5530 9246 c0 -2 8 -10 18 -17 15 -13 16 -12 3 4 -13 16 -21 21 -21
13z"/>
<path d="M5602 9205 c-9 -18 -8 -26 1 -31 7 -4 9 -4 5 1 -4 4 -3 16 3 27 6 11
9 22 6 24 -2 2 -9 -7 -15 -21z"/>
<path d="M6806 9217 c3 -10 9 -15 12 -12 3 3 0 11 -7 18 -10 9 -11 8 -5 -6z"/>
<path d="M6880 9201 c0 -6 4 -13 10 -16 6 -3 7 1 4 9 -7 18 -14 21 -14 7z"/>
<path d="M5070 9170 c-8 -5 -12 -12 -9 -15 4 -3 12 1 19 10 14 17 11 19 -10 5z"/>
<path d="M5680 9151 c0 -6 4 -13 10 -16 6 -3 7 1 4 9 -7 18 -14 21 -14 7z"/>
<path d="M5050 9131 c0 -6 4 -13 10 -16 6 -3 7 1 4 9 -7 18 -14 21 -14 7z"/>
<path d="M6205 9120 c3 -5 8 -10 11 -10 2 0 4 5 4 10 0 6 -5 10 -11 10 -5 0
-7 -4 -4 -10z"/>
<path d="M6901 9084 c0 -11 3 -14 6 -6 3 7 2 16 -1 19 -3 4 -6 -2 -5 -13z"/>
<path d="M5002 9070 c0 -14 2 -19 5 -12 2 6 2 18 0 25 -3 6 -5 1 -5 -13z"/>
<path d="M6926 9073 c-6 -14 -5 -15 5 -6 7 7 10 15 7 18 -3 3 -9 -2 -12 -12z"/>
<path d="M5731 9043 c7 -12 15 -20 18 -17 3 2 -3 12 -13 22 -17 16 -18 16 -5
-5z"/>
<path d="M6740 9030 c6 -11 13 -20 16 -20 2 0 0 9 -6 20 -6 11 -13 20 -16 20
-2 0 0 -9 6 -20z"/>
<path d="M6941 9028 c-1 -20 14 -24 25 -6 4 6 3 8 -4 4 -5 -3 -13 0 -15 6 -3
8 -6 6 -6 -4z"/>
<path d="M6776 9011 c-4 -5 -2 -12 3 -15 5 -4 12 -2 15 3 4 5 2 12 -3 15 -5 4
-12 2 -15 -3z"/>
<path d="M6825 8990 c3 -5 8 -10 11 -10 2 0 4 5 4 10 0 6 -5 10 -11 10 -5 0
-7 -4 -4 -10z"/>
<path d="M6943 8983 c9 -2 14 -9 11 -15 -4 -7 -2 -8 5 -4 15 10 4 26 -17 25
-15 -1 -15 -2 1 -6z"/>
<path d="M6800 8975 c0 -1 11 -10 25 -19 19 -13 23 -13 19 -2 -4 12 -44 31
-44 21z"/>
<path d="M2774 8226 c-10 -8 -16 -17 -13 -20 3 -3 14 3 24 14 21 23 17 26 -11
6z"/>
<path d="M2828 8233 c7 -3 16 -2 19 1 4 3 -2 6 -13 5 -11 0 -14 -3 -6 -6z"/>
<path d="M2697 8155 c3 -8 9 -12 14 -9 12 7 11 11 -5 17 -10 4 -13 1 -9 -8z"/>
<path d="M2842 8120 c-18 -29 -15 -38 4 -12 9 13 14 25 12 27 -2 2 -9 -5 -16
-15z"/>
<path d="M2688 7955 c2 -14 6 -25 8 -25 2 0 4 11 4 25 0 14 -4 25 -9 25 -4 0
-6 -11 -3 -25z"/>
<path d="M9205 7910 c-3 -5 0 -7 8 -4 8 3 18 1 22 -5 3 -6 12 -11 18 -11 7 0
3 7 -7 15 -23 18 -33 19 -41 5z"/>
<path d="M8760 7901 c0 -6 5 -13 12 -17 6 -4 8 -3 4 4 -3 5 0 13 6 15 8 3 6 6
-4 6 -10 1 -18 -3 -18 -8z"/>
<path d="M8915 7870 c-3 -6 1 -7 9 -4 18 7 21 14 7 14 -6 0 -13 -4 -16 -10z"/>
<path d="M9284 7864 c-18 -14 -18 -15 4 -4 12 6 22 13 22 15 0 8 -5 6 -26 -11z"/>
<path d="M8990 7860 c0 -5 5 -10 11 -10 5 0 7 5 4 10 -3 6 -8 10 -11 10 -2 0
-4 -4 -4 -10z"/>
<path d="M8800 7850 c-8 -60 -6 -101 2 -86 5 9 6 21 3 27 -4 5 -2 15 3 22 5 7
6 21 1 32 -5 14 -8 16 -9 5z"/>
<path d="M2786 7833 c-6 -14 -5 -15 5 -6 7 7 10 15 7 18 -3 3 -9 -2 -12 -12z"/>
<path d="M8716 7834 c-5 -14 -9 -14 -24 -3 -14 11 -13 9 2 -9 11 -12 21 -22
24 -22 3 0 2 3 -1 7 -4 3 -2 12 5 20 6 7 9 16 6 19 -3 3 -8 -3 -12 -12z"/>
<path d="M9095 7840 c3 -5 8 -10 11 -10 2 0 4 5 4 10 0 6 -5 10 -11 10 -5 0
-7 -4 -4 -10z"/>
<path d="M9230 7840 c-9 -6 -10 -10 -3 -10 6 0 15 5 18 10 8 12 4 12 -15 0z"/>
<path d="M8766 7817 c3 -10 9 -15 12 -12 3 3 0 11 -7 18 -10 9 -11 8 -5 -6z"/>
<path d="M8657 7802 c-10 -10 -17 -23 -17 -28 0 -4 7 2 17 15 15 23 17 23 30
6 7 -11 13 -14 13 -8 0 6 -6 16 -13 22 -11 8 -18 7 -30 -7z"/>
<path d="M2933 7792 c-7 -4 -9 -13 -4 -21 6 -9 10 -7 14 8 3 12 4 21 4 21 -1
0 -7 -4 -14 -8z"/>
<path d="M2906 7767 c3 -10 9 -15 12 -12 3 3 0 11 -7 18 -10 9 -11 8 -5 -6z"/>
<path d="M8670 7760 c6 -11 13 -20 16 -20 2 0 0 9 -6 20 -6 11 -13 20 -16 20
-2 0 0 -9 6 -20z"/>
<path d="M8639 7743 c-13 -16 -12 -17 4 -4 9 7 17 15 17 17 0 8 -8 3 -21 -13z"/>
<path d="M8831 7724 c0 -11 3 -14 6 -6 3 7 2 16 -1 19 -3 4 -6 -2 -5 -13z"/>
<path d="M2850 7640 c5 -10 8 -19 7 -21 -1 -2 0 -3 2 -1 11 6 6 39 -5 39 -9 0
-10 -5 -4 -17z"/>
<path d="M8423 7643 c9 -2 23 -2 30 0 6 3 -1 5 -18 5 -16 0 -22 -2 -12 -5z"/>
<path d="M8563 7625 c0 -8 4 -12 9 -9 5 3 6 10 3 15 -9 13 -12 11 -12 -6z"/>
<path d="M2750 7620 c-7 -18 -5 -49 3 -41 5 5 7 17 4 27 -3 11 -6 17 -7 14z"/>
<path d="M2804 7609 c-3 -6 -2 -15 3 -20 5 -5 9 -1 9 11 0 23 -2 24 -12 9z"/>
<path d="M2830 7601 c0 -6 4 -13 10 -16 6 -3 7 1 4 9 -7 18 -14 21 -14 7z"/>
<path d="M8519 7593 c-13 -17 -13 -17 6 -3 11 8 22 16 24 17 2 2 0 3 -6 3 -6
0 -17 -8 -24 -17z"/>
<path d="M2760 7559 c-7 -11 -10 -23 -7 -25 2 -2 9 7 15 21 14 30 7 33 -8 4z"/>
<path d="M8890 7500 c0 -5 5 -10 11 -10 5 0 7 5 4 10 -3 6 -8 10 -11 10 -2 0
-4 -4 -4 -10z"/>
<path d="M8893 7453 c-3 -10 -8 -22 -11 -27 -3 -5 0 -6 5 -3 11 7 25 47 17 47
-3 0 -7 -8 -11 -17z"/>
<path d="M3317 7405 c3 -8 9 -12 14 -9 12 7 11 11 -5 17 -10 4 -13 1 -9 -8z"/>
<path d="M3376 7405 c4 -8 11 -15 16 -15 6 0 5 6 -2 15 -7 8 -14 15 -16 15 -2
0 -1 -7 2 -15z"/>
<path d="M9000 7409 c0 -5 5 -7 10 -4 6 3 10 8 10 11 0 2 -4 4 -10 4 -5 0 -10
-5 -10 -11z"/>
<path d="M3260 7400 c-12 -8 -10 -10 8 -10 13 0 20 4 17 10 -7 12 -6 12 -25 0z"/>
<path d="M9127 7399 c7 -7 15 -10 18 -7 3 3 -2 9 -12 12 -14 6 -15 5 -6 -5z"/>
<path d="M9196 7367 c3 -10 9 -15 12 -12 3 3 0 11 -7 18 -10 9 -11 8 -5 -6z"/>
<path d="M3320 7360 c-9 -6 -10 -10 -3 -10 6 0 15 5 18 10 8 12 4 12 -15 0z"/>
<path d="M2375 7349 c-4 -6 -5 -12 -2 -15 2 -3 7 2 10 11 7 17 1 20 -8 4z"/>
<path d="M2486 7352 c-3 -5 1 -9 9 -9 8 0 12 4 9 9 -3 4 -7 8 -9 8 -2 0 -6 -4
-9 -8z"/>
<path d="M3390 7340 c0 -5 5 -10 11 -10 5 0 7 5 4 10 -3 6 -8 10 -11 10 -2 0
-4 -4 -4 -10z"/>
<path d="M2535 7320 c10 -11 20 -20 23 -20 3 0 -3 9 -13 20 -10 11 -20 20 -23
20 -3 0 3 -9 13 -20z"/>
<path d="M2344 7319 c-3 -6 -2 -15 3 -20 5 -5 9 -1 9 11 0 23 -2 24 -12 9z"/>
<path d="M3364 7309 c-4 -7 -3 -9 4 -5 6 3 15 -2 21 -11 6 -10 11 -13 11 -7 0
20 -27 37 -36 23z"/>
<path d="M8825 7310 c-16 -7 -17 -9 -3 -9 9 -1 20 4 23 9 7 11 7 11 -20 0z"/>
<path d="M8866 7303 c-6 -14 -5 -15 5 -6 7 7 10 15 7 18 -3 3 -9 -2 -12 -12z"/>
<path d="M8780 7300 c-9 -6 -10 -10 -3 -10 6 0 15 5 18 10 8 12 4 12 -15 0z"/>
<path d="M8726 7271 c-4 -5 3 -7 14 -4 23 6 26 13 6 13 -8 0 -17 -4 -20 -9z"/>
<path d="M3296 7252 c-2 -4 4 -8 14 -8 10 0 16 4 14 8 -3 4 -9 8 -14 8 -5 0
-11 -4 -14 -8z"/>
<path d="M3346 7248 c3 -5 10 -6 15 -3 13 9 11 12 -6 12 -8 0 -12 -4 -9 -9z"/>
<path d="M8830 7245 c0 -8 2 -15 4 -15 2 0 6 7 10 15 3 8 1 15 -4 15 -6 0 -10
-7 -10 -15z"/>
<path d="M9060 7255 c0 -7 30 -13 34 -7 3 4 -4 9 -15 9 -10 1 -19 0 -19 -2z"/>
<path d="M2940 7230 c-9 -6 -10 -10 -3 -10 6 0 15 5 18 10 8 12 4 12 -15 0z"/>
<path d="M3325 7219 c-4 -6 -14 -8 -24 -4 -13 5 -14 4 -3 -6 10 -11 15 -10 29
4 10 9 14 17 11 17 -4 0 -10 -5 -13 -11z"/>
<path d="M8611 7221 c-10 -7 -7 -9 12 -8 14 1 23 5 20 10 -6 9 -15 9 -32 -2z"/>
<path d="M2900 7207 c0 -2 6 -10 14 -16 11 -9 16 -9 22 1 4 7 4 10 -1 6 -4 -4
-14 -3 -22 3 -7 6 -13 9 -13 6z"/>
<path d="M8587 7189 c7 -7 15 -10 18 -7 3 3 -2 9 -12 12 -14 6 -15 5 -6 -5z"/>
<path d="M2870 7178 c0 -4 4 -8 9 -8 6 0 12 4 15 8 3 5 -1 9 -9 9 -8 0 -15 -4
-15 -9z"/>
<path d="M2950 7186 c0 -2 9 -6 20 -9 11 -3 18 -1 14 4 -5 9 -34 13 -34 5z"/>
<path d="M2917 7159 c7 -7 15 -10 18 -7 3 3 -2 9 -12 12 -14 6 -15 5 -6 -5z"/>
<path d="M8739 7133 c-13 -16 -12 -17 4 -4 9 7 17 15 17 17 0 8 -8 3 -21 -13z"/>
<path d="M8547 7089 c7 -7 15 -10 18 -7 3 3 -2 9 -12 12 -14 6 -15 5 -6 -5z"/>
<path d="M8650 7070 c-23 -7 -23 -8 -3 -9 12 -1 25 4 28 9 3 6 5 10 3 9 -2 -1
-14 -5 -28 -9z"/>
<path d="M2475 7040 c3 -5 8 -10 11 -10 2 0 4 5 4 10 0 6 -5 10 -11 10 -5 0
-7 -4 -4 -10z"/>
<path d="M8950 7043 c0 -5 5 -15 10 -23 7 -12 9 -10 7 8 -1 19 -17 33 -17 15z"/>
<path d="M2534 7014 c-18 -14 -18 -15 4 -4 12 6 22 13 22 15 0 8 -5 6 -26 -11z"/>
<path d="M9040 6990 c12 -8 12 -10 1 -10 -8 0 -12 -2 -9 -5 3 -3 13 -2 22 1
14 5 15 9 4 15 -7 5 -17 9 -23 9 -5 0 -3 -5 5 -10z"/>
<path d="M9008 6953 c7 -3 16 -2 19 1 4 3 -2 6 -13 5 -11 0 -14 -3 -6 -6z"/>
<path d="M9228 6893 c7 -3 16 -2 19 1 4 3 -2 6 -13 5 -11 0 -14 -3 -6 -6z"/>
<path d="M9270 6893 c5 -2 8 -9 5 -13 -3 -5 -1 -11 4 -14 5 -4 8 2 7 11 -2 9
-8 18 -15 19 -6 1 -7 0 -1 -3z"/>
<path d="M3034 6824 c-18 -14 -18 -14 6 -3 31 14 36 19 24 19 -6 0 -19 -7 -30
-16z"/>
<path d="M9379 6831 c8 -5 10 -14 6 -22 -6 -11 -5 -11 5 -2 14 12 6 33 -13 33
-8 0 -7 -3 2 -9z"/>
<path d="M3067 6769 c7 -7 15 -10 18 -7 3 3 -2 9 -12 12 -14 6 -15 5 -6 -5z"/>
<path d="M5000 6770 c0 -5 18 -10 40 -10 l40 0 0 -256 c0 -150 -4 -263 -10
-274 -5 -10 -23 -21 -40 -25 -66 -14 -24 -25 100 -25 80 0 130 4 130 10 0 6
-13 10 -29 10 -20 0 -31 6 -35 18 -2 9 -4 121 -4 247 0 127 0 249 -1 273 l-1
42 -95 0 c-57 0 -95 -4 -95 -10z"/>
<path d="M7570 6771 c0 -6 17 -11 38 -13 l37 -3 3 -246 c1 -140 -2 -258 -7
-272 -6 -16 -20 -27 -40 -32 -67 -14 -25 -25 99 -25 74 0 130 4 130 9 0 6 -15
11 -32 13 l-33 3 -3 288 -2 287 -95 0 c-53 0 -95 -4 -95 -9z"/>
<path d="M9339 6763 c-13 -16 -12 -17 4 -4 9 7 17 15 17 17 0 8 -8 3 -21 -13z"/>
<path d="M6560 6748 c-28 -31 -26 -72 6 -97 15 -12 35 -21 46 -21 25 0 68 44
68 70 0 29 -44 70 -74 70 -14 0 -34 -10 -46 -22z"/>
<path d="M8900 6749 c-6 -11 -10 -25 -8 -30 2 -5 8 4 15 21 13 34 9 40 -7 9z"/>
<path d="M9276 6761 c-4 -5 3 -7 14 -4 23 6 26 13 6 13 -8 0 -17 -4 -20 -9z"/>
<path d="M3095 6750 c-3 -5 -1 -10 4 -10 6 0 11 5 11 10 0 6 -2 10 -4 10 -3 0
-8 -4 -11 -10z"/>
<path d="M3779 6740 c-99 -17 -182 -87 -213 -178 -24 -69 -21 -167 8 -227 31
-68 104 -131 175 -151 65 -19 167 -14 227 11 35 14 40 14 50 0 25 -34 34 -15
34 75 0 109 -14 117 -56 33 -37 -73 -79 -103 -146 -103 -94 0 -138 45 -159
164 -12 74 -7 170 13 238 29 97 121 140 213 99 41 -18 50 -28 73 -81 39 -87
52 -79 52 30 0 86 -8 109 -28 75 -7 -14 -13 -14 -49 -1 -55 19 -138 26 -194
16z"/>
<path d="M6179 6740 c-139 -24 -228 -132 -229 -276 0 -127 48 -212 148 -261
50 -25 68 -28 147 -27 62 0 102 5 130 17 39 18 40 18 57 -5 24 -32 30 -12 26
88 -2 63 -6 79 -19 82 -11 2 -19 -6 -23 -25 -12 -47 -55 -104 -91 -119 -87
-36 -172 -6 -208 74 -29 64 -31 252 -4 324 36 94 125 130 212 88 38 -18 50
-31 73 -81 39 -85 52 -78 52 31 0 86 -8 109 -28 75 -7 -14 -13 -14 -48 -2 -53
19 -140 27 -195 17z"/>
<path d="M9268 6733 c7 -3 16 -2 19 1 4 3 -2 6 -13 5 -11 0 -14 -3 -6 -6z"/>
<path d="M8628 6703 c7 -3 16 -2 19 1 4 3 -2 6 -13 5 -11 0 -14 -3 -6 -6z"/>
<path d="M3186 6688 c3 -5 10 -6 15 -3 13 9 11 12 -6 12 -8 0 -12 -4 -9 -9z"/>
<path d="M8549 6675 c-1 -3 -2 -8 -3 -12 -1 -5 -5 -14 -9 -20 -6 -9 -3 -11 7
-7 8 3 14 14 13 25 -1 18 -5 25 -8 14z"/>
<path d="M3159 6653 c-13 -16 -12 -17 4 -4 9 7 17 15 17 17 0 8 -8 3 -21 -13z"/>
<path d="M8655 6661 c-3 -5 -1 -12 5 -16 5 -3 10 1 10 9 0 18 -6 21 -15 7z"/>
<path d="M2867 6643 c5 -12 3 -14 -8 -8 -8 4 -11 4 -6 0 4 -5 16 -9 26 -10 21
-2 18 20 -4 29 -10 3 -12 0 -8 -11z"/>
<path d="M3100 6631 c0 -6 4 -13 10 -16 6 -3 7 1 4 9 -7 18 -14 21 -14 7z"/>
<path d="M8466 6622 c-2 -4 0 -14 6 -22 8 -12 9 -12 5 2 -3 9 -1 19 6 22 9 3
9 5 0 5 -6 1 -14 -3 -17 -7z"/>
<path d="M2780 6579 c-6 -11 -10 -25 -8 -30 2 -5 8 4 15 21 13 34 9 40 -7 9z"/>
<path d="M8430 6590 c-8 -5 -12 -12 -9 -15 4 -3 12 1 19 10 14 17 11 19 -10 5z"/>
<path d="M4882 6583 c-12 -2 -38 -20 -58 -39 -20 -19 -38 -34 -40 -34 -2 0 -4
16 -4 35 l0 35 -80 0 c-64 0 -80 -3 -80 -15 0 -9 9 -15 25 -15 l25 0 0 -165 0
-165 -25 -12 c-14 -6 -25 -15 -25 -20 0 -4 59 -8 130 -8 80 0 130 4 130 10 0
6 -20 10 -45 10 l-45 0 0 120 c0 123 10 171 42 198 14 11 20 8 41 -19 38 -49
94 -41 111 17 13 42 -43 79 -102 67z"/>
<path d="M7015 6576 c-17 -7 -43 -28 -58 -45 l-27 -33 0 41 0 41 -86 0 c-64 0
-85 -3 -82 -12 3 -7 11 -13 19 -14 8 0 20 -2 27 -2 9 -2 12 -40 12 -157 0
-142 -2 -157 -20 -175 -11 -11 -24 -20 -30 -20 -5 0 -10 -4 -10 -10 0 -6 52
-10 136 -10 87 0 133 4 129 10 -3 6 -24 10 -46 10 l-39 0 0 130 c0 96 4 139
15 160 21 40 36 42 66 8 45 -53 109 -34 109 33 0 14 -6 32 -13 38 -23 18 -70
22 -102 7z"/>
<path d="M7285 6571 c-47 -22 -89 -64 -104 -104 -20 -51 -13 -157 12 -202 42
-76 164 -115 258 -84 38 13 99 66 99 86 0 20 -16 15 -33 -11 -21 -31 -76 -56
-125 -56 -77 0 -113 88 -97 234 12 97 34 136 79 136 30 0 48 -22 61 -74 8 -31
17 -43 37 -50 34 -12 78 14 78 47 0 27 -43 71 -83 86 -44 17 -137 13 -182 -8z"/>
<path d="M7995 6576 c-74 -33 -115 -100 -115 -188 0 -80 16 -122 59 -161 90
-81 247 -73 301 15 27 45 9 47 -32 3 -38 -42 -102 -57 -143 -35 -26 14 -50 69
-58 131 l-5 36 104 5 c130 6 159 22 158 87 -1 48 -22 76 -79 102 -47 22 -146
24 -190 5z m119 -19 c27 -20 40 -94 21 -123 -13 -21 -23 -24 -74 -24 l-58 0 8
49 c9 57 22 86 47 100 23 14 35 13 56 -2z"/>
<path d="M8717 6584 c-3 -5 1 -15 9 -22 16 -14 18 -5 5 17 -5 7 -11 9 -14 5z"/>
<path d="M4090 6565 c0 -9 9 -15 24 -15 24 0 24 0 28 -142 5 -164 17 -200 73
-224 67 -27 132 -12 174 42 l21 27 0 -37 0 -36 85 0 c50 0 85 4 85 10 0 6 -11
10 -25 10 l-25 0 -2 188 -3 187 -83 3 c-65 2 -83 0 -80 -10 3 -7 14 -14 26
-16 21 -3 22 -8 22 -123 0 -82 -5 -131 -14 -154 -28 -65 -104 -73 -125 -14 -6
18 -11 97 -11 175 l0 144 -85 0 c-69 0 -85 -3 -85 -15z"/>
<path d="M5290 6571 c0 -5 8 -11 18 -13 19 -5 192 -368 192 -404 0 -29 -55
-111 -79 -119 -26 -8 -40 0 -51 30 -19 50 -90 51 -90 1 0 -36 43 -66 96 -66
34 0 51 7 79 32 46 40 71 90 150 297 80 210 84 219 107 226 39 13 15 25 -52
25 -40 0 -70 -4 -70 -10 0 -5 16 -10 36 -10 25 0 35 -4 32 -12 -52 -139 -93
-238 -98 -238 -5 0 -76 157 -107 238 -3 8 4 12 21 12 14 0 26 5 26 10 0 6 -42
10 -105 10 -58 0 -105 -4 -105 -9z"/>
<path d="M6500 6565 c0 -9 9 -15 25 -15 l25 0 0 -165 0 -165 -25 -10 c-53 -20
-24 -30 91 -30 74 0 113 4 109 10 -3 6 -17 10 -31 10 l-24 0 0 190 0 190 -85
0 c-69 0 -85 -3 -85 -15z"/>
<path d="M2985 6550 c-3 -6 1 -7 9 -4 18 7 21 14 7 14 -6 0 -13 -4 -16 -10z"/>
<path d="M2405 6531 c-6 -11 13 -26 22 -17 4 3 1 6 -6 6 -7 0 -9 5 -6 10 3 6
4 10 1 10 -3 0 -7 -4 -11 -9z"/>
<path d="M2220 6521 c0 -6 4 -13 10 -16 6 -3 7 1 4 9 -7 18 -14 21 -14 7z"/>
<path d="M2876 6522 c-2 -4 -1 -14 4 -22 7 -11 9 -9 7 8 -1 24 -3 26 -11 14z"/>
<path d="M8578 6523 c7 -3 16 -2 19 1 4 3 -2 6 -13 5 -11 0 -14 -3 -6 -6z"/>
<path d="M2434 6494 c-18 -14 -18 -15 4 -4 12 6 22 13 22 15 0 8 -5 6 -26 -11z"/>
<path d="M2770 6501 c0 -6 4 -13 10 -16 6 -3 7 1 4 9 -7 18 -14 21 -14 7z"/>
<path d="M2465 6489 c-5 -7 -4 -10 3 -5 6 3 20 -6 31 -20 12 -15 21 -22 21
-17 0 5 -11 20 -24 32 -18 17 -26 19 -31 10z"/>
<path d="M8380 6490 c0 -5 5 -10 11 -10 5 0 7 5 4 10 -3 6 -8 10 -11 10 -2 0
-4 -4 -4 -10z"/>
<path d="M2800 6460 c-8 -5 -10 -10 -5 -10 6 0 17 5 25 10 8 5 11 10 5 10 -5
0 -17 -5 -25 -10z"/>
<path d="M8538 6453 c6 -2 18 -2 25 0 6 3 1 5 -13 5 -14 0 -19 -2 -12 -5z"/>
<path d="M2504 6422 c4 -7 2 -21 -5 -30 -12 -15 -11 -15 6 0 16 15 17 20 6 30
-11 11 -13 10 -7 0z"/>
<path d="M2560 6401 c0 -6 4 -13 10 -16 6 -3 7 1 4 9 -7 18 -14 21 -14 7z"/>
<path d="M2588 6358 c9 -9 9 -15 -1 -27 -10 -14 -10 -14 5 -3 14 11 18 10 27
-5 6 -10 11 -13 11 -7 0 11 -37 54 -47 54 -4 0 -2 -5 5 -12z"/>
<path d="M2340 6345 c0 -2 9 -9 20 -15 16 -9 18 -8 14 5 -5 13 -34 22 -34 10z"/>
<path d="M2675 6340 c3 -5 8 -10 11 -10 2 0 4 5 4 10 0 6 -5 10 -11 10 -5 0
-7 -4 -4 -10z"/>
<path d="M9319 6342 c12 -8 11 -11 -3 -15 -15 -4 -15 -5 1 -3 19 1 21 19 1 24
-10 3 -10 1 1 -6z"/>
<path d="M9385 6299 c-4 -6 -5 -12 -2 -15 2 -3 7 2 10 11 7 17 1 20 -8 4z"/>
<path d="M2543 6294 c3 -4 -4 -15 -16 -26 l-22 -19 27 17 c24 14 30 34 11 34
-4 0 -4 -3 0 -6z"/>
<path d="M2445 6281 c8 -14 42 -19 56 -10 8 5 10 9 4 10 -5 0 -22 2 -38 4 -15
2 -25 0 -22 -4z"/>
<path d="M9305 6279 c-4 -6 -5 -12 -2 -15 2 -3 7 2 10 11 7 17 1 20 -8 4z"/>
<path d="M9433 6265 c0 -8 4 -12 9 -9 5 3 6 10 3 15 -9 13 -12 11 -12 -6z"/>
<path d="M2542 6251 c-11 -7 -11 -9 0 -14 9 -3 15 1 15 9 0 8 -1 14 -1 14 -1
0 -7 -4 -14 -9z"/>
<path d="M9344 6228 c-4 -7 -4 -10 1 -6 4 4 15 2 24 -5 14 -11 14 -10 2 6 -16
20 -18 21 -27 5z"/>
<path d="M9415 6230 c3 -5 8 -10 11 -10 2 0 4 5 4 10 0 6 -5 10 -11 10 -5 0
-7 -4 -4 -10z"/>
<path d="M2622 6201 c-11 -7 -11 -9 0 -14 9 -3 15 1 15 9 0 8 -1 14 -1 14 -1
0 -7 -4 -14 -9z"/>
<path d="M2698 6193 c7 -3 16 -2 19 1 4 3 -2 6 -13 5 -11 0 -14 -3 -6 -6z"/>
<path d="M9526 6187 c3 -10 9 -15 12 -12 3 3 0 11 -7 18 -10 9 -11 8 -5 -6z"/>
<path d="M3228 6173 c7 -3 16 -2 19 1 4 3 -2 6 -13 5 -11 0 -14 -3 -6 -6z"/>
<path d="M3272 6171 c-11 -7 -11 -9 0 -14 9 -3 15 1 15 9 0 8 -1 14 -1 14 -1
0 -7 -4 -14 -9z"/>
<path d="M3300 6170 c0 -5 5 -10 11 -10 5 0 7 5 4 10 -3 6 -8 10 -11 10 -2 0
-4 -4 -4 -10z"/>
<path d="M8890 6160 c-9 -6 -10 -10 -3 -10 6 0 15 5 18 10 8 12 4 12 -15 0z"/>
<path d="M9415 6150 c10 -11 20 -20 22 -20 2 0 -2 9 -9 20 -7 11 -17 20 -22
20 -5 0 -1 -9 9 -20z"/>
<path d="M2688 6127 c-3 -19 -2 -25 4 -19 6 6 8 18 6 28 -3 14 -5 12 -10 -9z"/>
<path d="M8860 6136 c0 -10 4 -15 9 -12 5 4 12 0 14 -6 4 -8 6 -9 6 -2 1 6 -6
17 -14 24 -12 10 -15 9 -15 -4z"/>
<path d="M9450 6125 c0 -8 4 -15 10 -15 5 0 7 7 4 15 -4 8 -8 15 -10 15 -2 0
-4 -7 -4 -15z"/>
<path d="M9506 6125 c-11 -8 -15 -15 -9 -15 6 0 16 7 23 15 16 19 11 19 -14 0z"/>
<path d="M3080 6119 c0 -5 5 -7 10 -4 6 3 10 8 10 11 0 2 -4 4 -10 4 -5 0 -10
-5 -10 -11z"/>
<path d="M3315 6120 c-3 -5 -2 -10 4 -10 5 0 13 5 16 10 3 6 2 10 -4 10 -5 0
-13 -4 -16 -10z"/>
<path d="M3028 6098 c2 -10 7 -18 11 -18 4 0 7 8 7 18 0 10 -5 19 -12 19 -6 0
-9 -9 -6 -19z"/>
<path d="M3083 6085 c-3 -9 -3 -18 -1 -21 3 -3 8 4 11 16 6 23 -1 27 -10 5z"/>
<path d="M8802 6080 c0 -14 2 -19 5 -12 2 6 2 18 0 25 -3 6 -5 1 -5 -13z"/>
<path d="M3302 6052 c-11 -25 -11 -25 4 -10 9 9 15 21 13 27 -2 6 -10 -2 -17
-17z"/>
<path d="M3226 6052 c-2 -4 -1 -14 4 -22 7 -11 9 -9 7 8 -1 24 -3 26 -11 14z"/>
<path d="M2945 6040 c-3 -5 -1 -10 4 -10 6 0 11 5 11 10 0 6 -2 10 -4 10 -3 0
-8 -4 -11 -10z"/>
<path d="M8645 6025 c-16 -13 -25 -25 -20 -25 6 0 3 -5 -5 -11 -13 -9 -13 -10
0 -6 8 2 15 8 15 14 0 6 11 20 25 32 14 11 23 20 20 21 -3 0 -18 -11 -35 -25z"/>
<path d="M8811 6014 c0 -11 3 -14 6 -6 3 7 2 16 -1 19 -3 4 -6 -2 -5 -13z"/>
<path d="M3236 6004 c-9 -8 -22 -12 -28 -8 -7 4 -10 4 -6 -1 4 -4 2 -15 -5
-24 -10 -13 -10 -14 3 -5 51 36 71 54 62 54 -6 0 -18 -7 -26 -16z"/>
<path d="M8831 5963 c-1 -6 -4 -20 -7 -30 -5 -17 -5 -17 6 0 6 10 9 23 6 30
-3 9 -5 9 -5 0z"/>
<path d="M2808 5943 c-25 -30 -29 -41 -17 -49 7 -4 9 -3 6 3 -4 6 3 22 14 37
23 29 21 36 -3 9z"/>
<path d="M8540 5947 c0 -10 -4 -15 -10 -12 -6 4 -7 -1 -3 -11 5 -13 3 -15 -8
-9 -8 5 -11 4 -6 0 14 -16 36 -14 30 3 -4 10 -2 13 5 8 14 -9 15 3 2 24 -8 13
-10 12 -10 -3z"/>
<path d="M2835 5940 c-3 -5 -1 -10 4 -10 6 0 11 5 11 10 0 6 -2 10 -4 10 -3 0
-8 -4 -11 -10z"/>
<path d="M3110 5940 c-9 -6 -10 -10 -3 -10 6 0 15 5 18 10 8 12 4 12 -15 0z"/>
<path d="M8830 5911 c-37 -42 -41 -53 -7 -22 20 19 37 36 37 38 0 8 -17 -1
-30 -16z"/>
<path d="M2369 5903 c-12 -16 -12 -17 1 -7 8 7 24 14 35 17 19 4 19 5 -1 6
-12 0 -28 -7 -35 -16z"/>
<path d="M2330 5851 c0 -5 5 -13 10 -16 6 -3 10 -2 10 4 0 5 -4 13 -10 16 -5
3 -10 2 -10 -4z"/>
<path d="M2550 5845 c0 -2 6 -8 13 -14 10 -8 14 -7 14 2 0 8 -6 14 -14 14 -7
0 -13 -1 -13 -2z"/>
<path d="M8736 5841 c-12 -5 -15 -10 -9 -14 6 -4 16 0 23 8 14 17 13 17 -14 6z"/>
<path d="M2597 5829 c7 -7 15 -10 18 -7 3 3 -2 9 -12 12 -14 6 -15 5 -6 -5z"/>
<path d="M2370 5819 c0 -5 -6 -7 -12 -3 -7 4 -4 -3 7 -15 11 -12 21 -18 23
-12 2 6 9 8 14 5 7 -4 8 -2 4 4 -4 6 -13 9 -21 5 -11 -4 -13 -1 -9 11 3 9 3
16 0 16 -3 0 -6 -5 -6 -11z"/>
<path d="M8530 5810 c0 -5 10 -10 23 -10 18 0 19 2 7 10 -19 13 -30 13 -30 0z"/>
<path d="M9050 5809 c0 -5 5 -7 10 -4 6 3 10 8 10 11 0 2 -4 4 -10 4 -5 0 -10
-5 -10 -11z"/>
<path d="M8490 5781 c0 -9 30 -24 36 -18 2 1 -6 8 -16 15 -11 7 -20 8 -20 3z"/>
<path d="M9011 5754 c0 -11 3 -14 6 -6 3 7 2 16 -1 19 -3 4 -6 -2 -5 -13z"/>
<path d="M9203 5645 c0 -8 3 -13 6 -13 15 3 40 -15 34 -25 -3 -6 -1 -7 5 -3
16 10 16 9 -16 33 -20 15 -29 17 -29 8z"/>
<path d="M9003 5577 c0 -8 6 -14 14 -14 9 0 10 4 2 14 -6 7 -12 13 -14 13 -1
0 -2 -6 -2 -13z"/>
<path d="M3150 5576 c0 -2 7 -7 16 -10 8 -3 12 -2 9 4 -6 10 -25 14 -25 6z"/>
<path d="M8970 5560 c-9 -6 -10 -10 -3 -10 6 0 15 5 18 10 8 12 4 12 -15 0z"/>
<path d="M9324 5548 c15 -13 35 -37 42 -54 12 -24 13 -25 8 -4 -7 29 -31 58
-59 72 -11 5 -7 -1 9 -14z"/>
<path d="M8790 5550 c8 -5 20 -10 25 -10 6 0 3 5 -5 10 -8 5 -19 10 -25 10 -5
0 -3 -5 5 -10z"/>
<path d="M8860 5556 c0 -2 7 -7 16 -10 8 -3 12 -2 9 4 -6 10 -25 14 -25 6z"/>
<path d="M8728 5543 c7 -3 16 -2 19 1 4 3 -2 6 -13 5 -11 0 -14 -3 -6 -6z"/>
<path d="M8994 5529 c0 -13 3 -15 13 -7 7 6 13 14 13 18 0 3 -6 7 -13 7 -7 0
-13 -8 -13 -18z"/>
<path d="M8925 5520 c-3 -5 -1 -10 4 -10 6 0 11 5 11 10 0 6 -2 10 -4 10 -3 0
-8 -4 -11 -10z"/>
<path d="M9297 5509 c7 -7 15 -10 18 -7 3 3 -2 9 -12 12 -14 6 -15 5 -6 -5z"/>
<path d="M8540 5480 c-9 -6 -10 -10 -3 -10 6 0 15 5 18 10 8 12 4 12 -15 0z"/>
<path d="M8860 5455 c-14 -8 -20 -14 -14 -15 5 0 19 7 30 15 24 18 16 19 -16
0z"/>
<path d="M8517 5449 c7 -7 15 -10 18 -7 3 3 -2 9 -12 12 -14 6 -15 5 -6 -5z"/>
<path d="M2405 5440 c-13 -5 -14 -9 -5 -9 8 0 24 4 35 9 13 5 14 9 5 9 -8 0
-24 -4 -35 -9z"/>
<path d="M2510 5436 c0 -2 7 -7 16 -10 8 -3 12 -2 9 4 -6 10 -25 14 -25 6z"/>
<path d="M8430 5430 c-9 -6 -10 -10 -3 -10 6 0 15 5 18 10 8 12 4 12 -15 0z"/>
<path d="M9157 5421 c6 -7 9 -21 6 -30 -3 -9 2 -6 12 7 9 13 14 26 11 29 -3 4
-6 1 -6 -7 0 -10 -3 -10 -17 1 -15 11 -16 11 -6 0z"/>
<path d="M8799 5403 c-13 -16 -12 -17 4 -4 16 13 21 21 13 21 -2 0 -10 -8 -17
-17z"/>
<path d="M2367 5389 c15 -16 25 -19 38 -12 16 9 16 11 1 16 -10 4 -15 3 -11
-3 3 -6 1 -10 -5 -10 -6 0 -13 7 -16 15 -4 8 -11 15 -17 15 -6 0 -2 -10 10
-21z"/>
<path d="M9411 5394 c0 -11 3 -14 6 -6 3 7 2 16 -1 19 -3 4 -6 -2 -5 -13z"/>
<path d="M8378 5375 c-6 -13 -14 -22 -19 -20 -4 3 -10 2 -13 -3 -2 -4 6 -8 19
-8 13 0 22 4 19 8 -3 4 0 17 6 28 6 11 8 20 5 20 -3 0 -10 -11 -17 -25z"/>
<path d="M9186 5383 c-6 -14 -5 -15 5 -6 7 7 10 15 7 18 -3 3 -9 -2 -12 -12z"/>
<path d="M8746 5378 c3 -5 10 -6 15 -3 13 9 11 12 -6 12 -8 0 -12 -4 -9 -9z"/>
<path d="M8971 5374 c0 -11 3 -14 6 -6 3 7 2 16 -1 19 -3 4 -6 -2 -5 -13z"/>
<path d="M9190 5341 c0 -6 5 -11 11 -11 5 0 7 -4 4 -10 -3 -6 1 -7 10 -4 9 4
15 7 13 8 -2 1 -11 8 -20 15 -12 9 -18 10 -18 2z"/>
<path d="M9247 5329 c7 -7 15 -10 18 -7 3 3 -2 9 -12 12 -14 6 -15 5 -6 -5z"/>
<path d="M9369 5323 c-13 -16 -12 -17 4 -4 9 7 17 15 17 17 0 8 -8 3 -21 -13z"/>
<path d="M9380 5305 c-14 -16 -45 -21 -35 -5 4 6 -1 7 -11 3 -16 -6 -15 -8 5
-17 18 -8 26 -5 44 12 12 12 19 22 15 22 -3 0 -11 -7 -18 -15z"/>
<path d="M8598 5293 c7 -3 16 -2 19 1 4 3 -2 6 -13 5 -11 0 -14 -3 -6 -6z"/>
<path d="M8371 5274 c0 -11 3 -14 6 -6 3 7 2 16 -1 19 -3 4 -6 -2 -5 -13z"/>
<path d="M8565 5280 c3 -5 8 -10 11 -10 2 0 4 5 4 10 0 6 -5 10 -11 10 -5 0
-7 -4 -4 -10z"/>
<path d="M8336 5261 c-6 -9 7 -22 34 -35 8 -4 6 0 -5 9 -11 9 -19 21 -17 26 3
12 -5 12 -12 0z"/>
<path d="M2716 5221 c-3 -5 1 -11 9 -14 9 -4 12 -1 8 9 -6 16 -10 17 -17 5z"/>
<path d="M8952 5190 c0 -14 2 -19 5 -12 2 6 2 18 0 25 -3 6 -5 1 -5 -13z"/>
<path d="M8927 5086 c-10 -8 -14 -16 -10 -19 5 -3 14 3 21 14 14 22 13 23 -11
5z"/>
<path d="M8946 5072 c-3 -5 1 -9 9 -9 8 0 12 4 9 9 -3 4 -7 8 -9 8 -2 0 -6 -4
-9 -8z"/>
<path d="M3282 5044 c10 -10 20 -16 22 -13 3 3 -5 11 -17 18 -21 13 -21 12 -5
-5z"/>
<path d="M3146 5001 c-3 -5 1 -11 9 -14 9 -4 12 -1 8 9 -6 16 -10 17 -17 5z"/>
<path d="M3228 5003 c7 -3 16 -2 19 1 4 3 -2 6 -13 5 -11 0 -14 -3 -6 -6z"/>
<path d="M2910 4962 c0 -5 7 -15 15 -22 8 -7 15 -9 15 -6 0 4 -7 14 -15 22 -8
9 -15 11 -15 6z"/>
<path d="M3099 4953 c-13 -16 -12 -17 4 -4 16 13 21 21 13 21 -2 0 -10 -8 -17
-17z"/>
<path d="M2460 4735 c7 -8 20 -14 29 -14 13 1 13 2 -1 6 -10 2 -18 9 -18 14 0
5 -5 9 -11 9 -8 0 -8 -5 1 -15z"/>
<path d="M8968 4413 c7 -3 16 -2 19 1 4 3 -2 6 -13 5 -11 0 -14 -3 -6 -6z"/>
<path d="M6029 3723 c-13 -16 -12 -17 4 -4 16 13 21 21 13 21 -2 0 -10 -8 -17
-17z"/>
<path d="M6011 3684 c0 -11 3 -14 6 -6 3 7 2 16 -1 19 -3 4 -6 -2 -5 -13z"/>
<path d="M6163 3665 c0 -8 4 -12 9 -9 5 3 6 10 3 15 -9 13 -12 11 -12 -6z"/>
<path d="M4960 3613 c0 -6 8 -17 18 -24 16 -13 16 -13 2 6 -8 11 -16 22 -17
24 -2 2 -3 0 -3 -6z"/>
<path d="M6727 3604 c7 -3 11 -11 9 -17 -1 -7 -1 -9 1 -4 3 4 10 4 16 0 7 -4
6 1 -2 10 -7 9 -19 17 -25 16 -7 0 -7 -2 1 -5z"/>
<path d="M6216 3592 c-3 -5 1 -9 9 -9 8 0 12 4 9 9 -3 4 -7 8 -9 8 -2 0 -6 -4
-9 -8z"/>
<path d="M6672 3593 c-13 -5 -7 -23 9 -23 6 0 8 4 5 9 -4 5 0 12 6 14 7 3 9 5
3 5 -5 0 -16 -2 -23 -5z"/>
<path d="M5529 3511 c9 -6 11 -16 7 -27 -7 -18 -6 -18 11 -1 16 15 16 19 3 27
-8 5 -19 10 -25 10 -5 0 -4 -4 4 -9z"/>
<path d="M5067 3503 c-10 -9 -9 -23 1 -23 5 0 9 7 9 15 0 17 -1 18 -10 8z"/>
<path d="M4995 3460 c3 -5 8 -10 11 -10 2 0 4 5 4 10 0 6 -5 10 -11 10 -5 0
-7 -4 -4 -10z"/>
<path d="M5420 3451 c0 -6 4 -13 10 -16 6 -3 7 1 4 9 -7 18 -14 21 -14 7z"/>
<path d="M6835 3449 c-6 -8 -4 -10 5 -4 10 6 12 4 6 -11 -6 -15 -5 -17 5 -6 9
9 10 15 2 23 -8 8 -13 7 -18 -2z"/>
<path d="M5603 3425 c0 -8 4 -12 9 -9 5 3 6 10 3 15 -9 13 -12 11 -12 -6z"/>
<path d="M6225 3430 c3 -5 11 -10 16 -10 6 0 7 5 4 10 -3 6 -11 10 -16 10 -6
0 -7 -4 -4 -10z"/>
<path d="M6700 3427 c0 -2 15 -16 33 -33 l32 -29 -29 33 c-28 30 -36 37 -36
29z"/>
<path d="M4895 3410 c-3 -6 1 -7 9 -4 18 7 21 14 7 14 -6 0 -13 -4 -16 -10z"/>
<path d="M5603 3369 c-2 -23 3 -25 10 -4 4 8 3 16 -1 19 -4 3 -9 -4 -9 -15z"/>
<path d="M6850 3376 c0 -2 7 -7 16 -10 8 -3 12 -2 9 4 -6 10 -25 14 -25 6z"/>
<path d="M5406 3341 c-4 -5 -2 -12 3 -15 5 -4 12 -2 15 3 4 5 2 12 -3 15 -5 4
-12 2 -15 -3z"/>
<path d="M6140 3336 c0 -2 8 -10 18 -17 15 -13 16 -12 3 4 -13 16 -21 21 -21
13z"/>
<path d="M5680 3311 c0 -6 4 -13 10 -16 6 -3 7 1 4 9 -7 18 -14 21 -14 7z"/>
<path d="M6192 3280 c7 -10 14 -18 15 -16 6 6 -9 36 -18 36 -5 0 -4 -9 3 -20z"/>
<path d="M7060 3290 c0 -5 7 -10 16 -10 8 0 12 5 9 10 -3 6 -10 10 -16 10 -5
0 -9 -4 -9 -10z"/>
<path d="M5493 3252 c-8 -5 -7 -11 2 -19 10 -10 14 -9 19 2 6 17 -5 26 -21 17z"/>
<path d="M6260 3250 c-9 -6 -10 -10 -3 -10 6 0 15 5 18 10 8 12 4 12 -15 0z"/>
<path d="M6900 3250 c-9 -6 -10 -10 -3 -10 6 0 15 5 18 10 8 12 4 12 -15 0z"/>
<path d="M5690 3245 c0 -5 5 -17 10 -25 5 -8 10 -10 10 -5 0 6 -5 17 -10 25
-5 8 -10 11 -10 5z"/>
<path d="M5730 3235 c0 -5 5 -17 10 -25 5 -8 10 -10 10 -5 0 6 -5 17 -10 25
-5 8 -10 11 -10 5z"/>
<path d="M6255 3220 c3 -5 8 -10 11 -10 2 0 4 5 4 10 0 6 -5 10 -11 10 -5 0
-7 -4 -4 -10z"/>
<path d="M6790 3210 c-9 -6 -10 -10 -3 -10 6 0 15 5 18 10 8 12 4 12 -15 0z"/>
<path d="M6935 3198 l-20 -21 22 12 c23 12 40 31 26 30 -4 0 -17 -10 -28 -21z"/>
<path d="M5030 3200 c0 -6 7 -10 15 -10 8 0 15 2 15 4 0 2 -7 6 -15 10 -8 3
-15 1 -15 -4z"/>
<path d="M5090 3206 c0 -2 9 -6 20 -9 11 -3 18 -1 14 4 -5 9 -34 13 -34 5z"/>
<path d="M5755 3180 c3 -5 8 -10 11 -10 2 0 4 5 4 10 0 6 -5 10 -11 10 -5 0
-7 -4 -4 -10z"/>
<path d="M5074 3158 c-4 -7 -4 -10 1 -6 4 4 15 2 24 -5 14 -11 14 -10 2 6 -16
20 -18 21 -27 5z"/>
<path d="M5624 3154 c9 -6 14 -14 11 -17 -3 -4 -2 -5 2 -2 15 12 10 31 -9 31
-17 0 -17 -2 -4 -12z"/>
<path d="M4040 3156 c0 -2 8 -10 18 -17 15 -13 16 -12 3 4 -13 16 -21 21 -21
13z"/>
<path d="M5766 3145 c-3 -8 -1 -15 4 -15 6 0 10 7 10 15 0 8 -2 15 -4 15 -2 0
-6 -7 -10 -15z"/>
<path d="M6430 3150 c-9 -6 -10 -10 -3 -10 6 0 15 5 18 10 8 12 4 12 -15 0z"/>
<path d="M6570 3149 c0 -5 5 -7 10 -4 6 3 10 8 10 11 0 2 -4 4 -10 4 -5 0 -10
-5 -10 -11z"/>
<path d="M5659 3133 c-13 -16 -12 -17 4 -4 9 7 17 15 17 17 0 8 -8 3 -21 -13z"/>
<path d="M4016 3128 c3 -5 10 -6 15 -3 13 9 11 12 -6 12 -8 0 -12 -4 -9 -9z"/>
<path d="M6310 3130 c-9 -6 -10 -10 -3 -10 6 0 15 5 18 10 8 12 4 12 -15 0z"/>
<path d="M6490 3136 c0 -2 9 -6 20 -9 11 -3 18 -1 14 4 -5 9 -34 13 -34 5z"/>
<path d="M5779 3113 c-13 -16 -12 -17 4 -4 16 13 21 21 13 21 -2 0 -10 -8 -17
-17z"/>
<path d="M6395 3121 c-3 -5 -2 -12 3 -15 5 -3 9 1 9 9 0 17 -3 19 -12 6z"/>
<path d="M6588 3123 c7 -3 16 -2 19 1 4 3 -2 6 -13 5 -11 0 -14 -3 -6 -6z"/>
<path d="M4622 3111 c-11 -7 -10 -9 3 -14 9 -4 14 -3 10 2 -3 5 1 12 7 14 7 3
9 6 3 6 -5 0 -16 -3 -23 -8z"/>
<path d="M6566 3093 c-6 -14 -5 -15 5 -6 7 7 10 15 7 18 -3 3 -9 -2 -12 -12z"/>
<path d="M5130 3096 c0 -2 7 -7 16 -10 8 -3 12 -2 9 4 -6 10 -25 14 -25 6z"/>
<path d="M5811 3085 c1 -19 18 -51 18 -35 0 8 -4 22 -9 30 -5 8 -9 11 -9 5z"/>
<path d="M4565 3070 c-3 -5 -1 -10 4 -10 6 0 11 5 11 10 0 6 -2 10 -4 10 -3 0
-8 -4 -11 -10z"/>
<path d="M5750 3069 c0 -5 5 -7 10 -4 6 3 10 8 10 11 0 2 -4 4 -10 4 -5 0 -10
-5 -10 -11z"/>
<path d="M5650 3065 c0 -8 38 -11 55 -5 15 6 10 8 -17 8 -21 0 -38 -1 -38 -3z"/>
<path d="M5070 3056 c0 -2 7 -9 15 -16 13 -11 14 -10 9 4 -5 14 -24 23 -24 12z"/>
<path d="M5110 3051 c0 -5 6 -12 13 -14 9 -4 8 -8 -3 -17 -13 -10 -13 -11 0
-7 19 5 22 47 4 47 -8 0 -14 -4 -14 -9z"/>
<path d="M6835 3049 c-4 -6 -5 -12 -2 -15 2 -3 7 2 10 11 7 17 1 20 -8 4z"/>
<path d="M4150 3041 c0 -5 5 -13 10 -16 6 -3 10 -2 10 4 0 5 -4 13 -10 16 -5
3 -10 2 -10 -4z"/>
<path d="M6440 3040 c0 -5 5 -10 11 -10 5 0 7 5 4 10 -3 6 -8 10 -11 10 -2 0
-4 -4 -4 -10z"/>
<path d="M5184 3025 c8 -8 23 -15 33 -15 13 0 10 4 -11 15 -36 19 -41 19 -22
0z"/>
<path d="M5956 3015 c-11 -8 -17 -17 -14 -20 2 -3 13 4 23 15 21 23 18 25 -9
5z"/>
<path d="M4015 3002 c-5 -13 -4 -14 6 -5 10 10 15 9 24 -3 9 -13 11 -13 11 3
0 24 -32 27 -41 5z"/>
<path d="M4459 3007 c-13 -10 -14 -15 -4 -24 10 -9 14 -7 18 13 2 13 4 24 3
24 0 0 -8 -6 -17 -13z"/>
<path d="M5275 3009 c-4 -5 -4 -13 -1 -16 3 -4 6 0 6 8 0 11 2 11 10 -1 6 -9
10 -10 10 -3 0 17 -17 25 -25 12z"/>
<path d="M6026 2973 c-4 -9 -1 -21 5 -27 9 -8 10 -7 4 3 -4 7 -2 16 5 21 8 5
8 10 2 14 -5 3 -13 -2 -16 -11z"/>
<path d="M7495 2980 c3 -5 8 -10 11 -10 2 0 4 5 4 10 0 6 -5 10 -11 10 -5 0
-7 -4 -4 -10z"/>
<path d="M4020 2976 c0 -2 12 -12 28 -21 l27 -18 -19 21 c-17 20 -36 29 -36
18z"/>
<path d="M5305 2970 c3 -5 8 -10 11 -10 2 0 4 5 4 10 0 6 -5 10 -11 10 -5 0
-7 -4 -4 -10z"/>
<path d="M6395 2970 c3 -5 8 -10 11 -10 2 0 4 5 4 10 0 6 -5 10 -11 10 -5 0
-7 -4 -4 -10z"/>
<path d="M5193 2948 c-1 -11 1 -16 5 -12 4 5 11 12 15 15 5 3 2 9 -5 12 -9 3
-14 -3 -15 -15z"/>
<path d="M5846 2925 c-11 -8 -17 -17 -14 -20 2 -3 13 4 23 15 21 23 18 25 -9
5z"/>
<path d="M7473 2923 c14 -14 19 -15 29 -4 11 10 10 11 -4 6 -11 -4 -18 -2 -18
4 0 6 -5 11 -12 11 -8 0 -6 -6 5 -17z"/>
<path d="M6016 2915 c-9 -26 -7 -32 5 -12 6 10 9 21 6 23 -2 3 -7 -2 -11 -11z"/>
<path d="M6356 2886 c6 -15 4 -17 -6 -11 -9 6 -11 4 -5 -4 5 -9 10 -10 18 -2
8 8 7 14 -2 24 -10 10 -11 8 -5 -7z"/>
<path d="M5880 2870 c0 -5 5 -10 11 -10 5 0 7 5 4 10 -3 6 -8 10 -11 10 -2 0
-4 -4 -4 -10z"/>
<path d="M5950 2839 c-7 -11 -10 -23 -7 -25 2 -2 9 7 15 21 14 30 7 33 -8 4z"/>
<path d="M6889 2858 c-2 -5 -5 -58 -3 -58 1 0 10 12 20 28 17 26 17 27 -1 12
-17 -14 -18 -13 -12 3 5 13 2 26 -4 15z"/>
<path d="M5240 2839 c0 -5 5 -7 10 -4 6 3 10 8 10 11 0 2 -4 4 -10 4 -5 0 -10
-5 -10 -11z"/>
<path d="M5808 2843 c7 -3 16 -2 19 1 4 3 -2 6 -13 5 -11 0 -14 -3 -6 -6z"/>
<path d="M5211 2798 c-14 -23 -14 -23 8 -4 22 20 25 26 13 26 -4 0 -13 -10
-21 -22z"/>
<path d="M5735 2800 c-3 -5 -1 -10 5 -10 6 0 8 -5 4 -12 -4 -7 -3 -8 4 -4 6 4
9 13 5 21 -6 18 -10 19 -18 5z"/>
<path d="M6847 2779 c7 -7 15 -10 18 -7 3 3 -2 9 -12 12 -14 6 -15 5 -6 -5z"/>
<path d="M6375 2762 c-8 -21 -3 -22 17 -2 14 13 15 17 3 17 -8 0 -17 -7 -20
-15z"/>
<path d="M4987 2749 c7 -7 15 -10 18 -7 3 3 -2 9 -12 12 -14 6 -15 5 -6 -5z"/>
<path d="M5150 2750 c-9 -6 -10 -10 -3 -10 6 0 15 5 18 10 8 12 4 12 -15 0z"/>
<path d="M5710 2749 c0 -5 5 -7 10 -4 6 3 10 8 10 11 0 2 -4 4 -10 4 -5 0 -10
-5 -10 -11z"/>
<path d="M6415 2751 c3 -5 -3 -12 -12 -14 -14 -4 -13 -5 4 -6 27 -1 39 15 17
23 -8 3 -12 2 -9 -3z"/>
<path d="M5155 2729 c-18 -11 -24 -19 -14 -19 9 0 24 9 34 20 22 24 19 24 -20
-1z"/>
<path d="M5721 2714 c0 -11 3 -14 6 -6 3 7 2 16 -1 19 -3 4 -6 -2 -5 -13z"/>
<path d="M4890 2702 c0 -5 7 -9 15 -9 8 0 12 4 9 9 -3 4 -9 8 -15 8 -5 0 -9
-4 -9 -8z"/>
<path d="M5701 2694 c0 -11 3 -14 6 -6 3 7 2 16 -1 19 -3 4 -6 -2 -5 -13z"/>
<path d="M4945 2691 c-3 -5 0 -13 6 -17 7 -4 9 -3 5 4 -3 5 0 13 6 15 9 4 10
6 1 6 -6 1 -14 -3 -18 -8z"/>
<path d="M5887 2680 c21 -24 24 -25 16 -3 -5 12 -3 14 8 8 8 -4 11 -4 6 0 -4
5 -16 10 -27 12 -19 3 -19 2 -3 -17z"/>
<path d="M4929 2660 c13 -11 28 -20 35 -19 6 0 1 5 -11 11 -13 6 -23 15 -23
20 0 4 -6 8 -12 8 -7 -1 -2 -10 11 -20z"/>
<path d="M5070 2676 c0 -2 8 -10 18 -17 15 -13 16 -12 3 4 -13 16 -21 21 -21
13z"/>
<path d="M5860 2671 c0 -6 4 -13 10 -16 6 -3 7 1 4 9 -7 18 -14 21 -14 7z"/>
<path d="M5043 2657 c0 -7 9 -13 19 -13 10 0 18 1 18 3 0 1 -8 7 -18 12 -13 7
-19 6 -19 -2z"/>
<path d="M5846 2635 c-9 -26 -7 -32 5 -12 6 10 9 21 6 23 -2 3 -7 -2 -11 -11z"/>
<path d="M5700 2625 c0 -8 4 -15 10 -15 5 0 7 7 4 15 -4 8 -8 15 -10 15 -2 0
-4 -7 -4 -15z"/>
<path d="M5724 2598 c-8 -13 23 -38 45 -37 9 0 3 5 -12 11 -18 6 -26 15 -23
24 6 17 0 19 -10 2z"/>
</g>
</svg>
